HIERARCHY
ROOT Hips
{
	OFFSET 0.000000 97.167313 0.000000
	CHANNELS 6 Xposition Yposition Zposition Xrotation Yrotation Zrotation
	JOINT Spine
	{
		OFFSET 0.000000 13.784798 0.064400
		CHANNELS 3 Xrotation Yrotation Zrotation
		JOINT Spine1
		{
			OFFSET 0.000000 12.037903 0.404700
			CHANNELS 3 Xrotation Yrotation Zrotation
			JOINT Spine2
			{
				OFFSET 0.000000 17.795601 0.420200
				CHANNELS 3 Xrotation Yrotation Zrotation
				JOINT Neck
				{
					OFFSET 0.000000 39.131302 11.954600
					CHANNELS 3 Xrotation Yrotation Zrotation
					JOINT Head
					{
						OFFSET 0.000000 14.456192 15.627699
						CHANNELS 3 Xrotation Yrotation Zrotation
						JOINT HeadTop_End
						{
							OFFSET 0.000000 15.703506 7.603401
							CHANNELS 3 Xrotation Yrotation Zrotation
							End Site
							{
								OFFSET 0.000000 17.447403 0.000000
							}
						}
					}
				}
				JOINT LeftShoulder
				{
					OFFSET 17.399500 24.608795 1.168800
					CHANNELS 3 Xrotation Yrotation Zrotation
					JOINT LeftArm
					{
						OFFSET 18.980635 5.765305 1.818600
						CHANNELS 3 Xrotation Yrotation Zrotation
						JOINT LeftForeArm
						{
							OFFSET 49.290169 0.000000 0.000000
							CHANNELS 3 Xrotation Yrotation Zrotation
							JOINT LeftHand
							{
								OFFSET 31.562012 0.000000 0.000000
								CHANNELS 3 Xrotation Yrotation Zrotation
								JOINT LeftHandThumb1
								{
									OFFSET 6.133995 -4.388519 7.076070
									CHANNELS 3 Xrotation Yrotation Zrotation
									JOINT LeftHandThumb2
									{
										OFFSET 6.037666 -3.485840 3.485847
										CHANNELS 3 Xrotation Yrotation Zrotation
										JOINT LeftHandThumb3
										{
											OFFSET 6.496506 -3.750763 3.750761
											CHANNELS 3 Xrotation Yrotation Zrotation
											JOINT LeftHandThumb4
											{
												OFFSET 5.616882 -3.242905 3.242910
												CHANNELS 3 Xrotation Yrotation Zrotation
												End Site
												{
													OFFSET -1.254608 7.132141 0.375429
												}
											}
										}
									}
								}
								JOINT LeftHandPinky1
								{
									OFFSET 18.920792 -0.453171 -11.426712
									CHANNELS 3 Xrotation Yrotation Zrotation
									JOINT LeftHandPinky2
									{
										OFFSET 4.919586 0.000000 0.000000
										CHANNELS 3 Xrotation Yrotation Zrotation
										JOINT LeftHandPinky3
										{
											OFFSET 5.233047 0.000000 0.000000
											CHANNELS 3 Xrotation Yrotation Zrotation
											JOINT LeftHandPinky4
											{
												OFFSET 5.571716 0.000000 0.000000
												CHANNELS 3 Xrotation Yrotation Zrotation
												End Site
												{
													OFFSET -3.459808 4.342407 -0.466164
												}
											}
										}
									}
								}
								JOINT LeftHandRing1
								{
									OFFSET 22.726120 -0.094986 -6.500475
									CHANNELS 3 Xrotation Yrotation Zrotation
									JOINT LeftHandRing2
									{
										OFFSET 6.408615 0.000000 0.000000
										CHANNELS 3 Xrotation Yrotation Zrotation
										JOINT LeftHandRing3
										{
											OFFSET 6.150223 0.000000 0.000000
											CHANNELS 3 Xrotation Yrotation Zrotation
											JOINT LeftHandRing4
											{
												OFFSET 6.145386 0.000000 0.000000
												CHANNELS 3 Xrotation Yrotation Zrotation
												End Site
												{
													OFFSET -3.671402 4.923981 -0.202372
												}
											}
										}
									}
								}
								JOINT LeftHandMiddle1
								{
									OFFSET 23.373947 0.000000 0.000001
									CHANNELS 3 Xrotation Yrotation Zrotation
									JOINT LeftHandMiddle2
									{
										OFFSET 6.996567 0.000000 0.000000
										CHANNELS 3 Xrotation Yrotation Zrotation
										JOINT LeftHandMiddle3
										{
											OFFSET 7.015945 0.000000 0.000000
											CHANNELS 3 Xrotation Yrotation Zrotation
											JOINT LeftHandMiddle4
											{
												OFFSET 7.721573 0.000000 0.000000
												CHANNELS 3 Xrotation Yrotation Zrotation
												End Site
												{
													OFFSET -4.651108 6.158463 0.251582
												}
											}
										}
									}
								}
								JOINT LeftHandIndex1
								{
									OFFSET 21.310577 -0.490082 6.209344
									CHANNELS 3 Xrotation Yrotation Zrotation
									JOINT LeftHandIndex2
									{
										OFFSET 7.536453 0.000000 0.000000
										CHANNELS 3 Xrotation Yrotation Zrotation
										JOINT LeftHandIndex3
										{
											OFFSET 7.512344 0.000000 0.000000
											CHANNELS 3 Xrotation Yrotation Zrotation
											JOINT LeftHandIndex4
											{
												OFFSET 10.212402 0.000000 0.000001
												CHANNELS 3 Xrotation Yrotation Zrotation
												End Site
												{
													OFFSET -5.180801 8.690506 1.388433
												}
											}
										}
									}
								}
							}
						}
					}
				}
				JOINT RightShoulder
				{
					OFFSET -17.399500 24.608795 1.168800
					CHANNELS 3 Xrotation Yrotation Zrotation
					JOINT RightArm
					{
						OFFSET -18.980635 5.765305 1.818600
						CHANNELS 3 Xrotation Yrotation Zrotation
						JOINT RightForeArm
						{
							OFFSET -49.290169 0.000000 0.000000
							CHANNELS 3 Xrotation Yrotation Zrotation
							JOINT RightHand
							{
								OFFSET -31.562012 0.000000 0.000000
								CHANNELS 3 Xrotation Yrotation Zrotation
								JOINT RightHandThumb1
								{
									OFFSET -6.133995 -4.388519 7.076070
									CHANNELS 3 Xrotation Yrotation Zrotation
									JOINT RightHandThumb2
									{
										OFFSET -6.037666 -3.485840 3.485847
										CHANNELS 3 Xrotation Yrotation Zrotation
										JOINT RightHandThumb3
										{
											OFFSET -6.496506 -3.750763 3.750761
											CHANNELS 3 Xrotation Yrotation Zrotation
											JOINT RightHandThumb4
											{
												OFFSET -5.616882 -3.242905 3.242910
												CHANNELS 3 Xrotation Yrotation Zrotation
												End Site
												{
													OFFSET 1.254608 7.132141 0.375429
												}
											}
										}
									}
								}
								JOINT RightHandIndex1
								{
									OFFSET -21.310577 -0.490082 6.209344
									CHANNELS 3 Xrotation Yrotation Zrotation
									JOINT RightHandIndex2
									{
										OFFSET -7.536453 0.000000 0.000000
										CHANNELS 3 Xrotation Yrotation Zrotation
										JOINT RightHandIndex3
										{
											OFFSET -7.512344 0.000000 0.000000
											CHANNELS 3 Xrotation Yrotation Zrotation
											JOINT RightHandIndex4
											{
												OFFSET -10.212402 0.000000 0.000001
												CHANNELS 3 Xrotation Yrotation Zrotation
												End Site
												{
													OFFSET 5.180801 8.690506 1.388433
												}
											}
										}
									}
								}
								JOINT RightHandMiddle1
								{
									OFFSET -23.373947 0.000000 0.000001
									CHANNELS 3 Xrotation Yrotation Zrotation
									JOINT RightHandMiddle2
									{
										OFFSET -6.996567 0.000000 0.000000
										CHANNELS 3 Xrotation Yrotation Zrotation
										JOINT RightHandMiddle3
										{
											OFFSET -7.015945 0.000000 0.000000
											CHANNELS 3 Xrotation Yrotation Zrotation
											JOINT RightHandMiddle4
											{
												OFFSET -7.721573 0.000000 0.000000
												CHANNELS 3 Xrotation Yrotation Zrotation
												End Site
												{
													OFFSET 4.651108 6.158463 0.251582
												}
											}
										}
									}
								}
								JOINT RightHandRing1
								{
									OFFSET -22.726120 -0.094986 -6.500475
									CHANNELS 3 Xrotation Yrotation Zrotation
									JOINT RightHandRing2
									{
										OFFSET -6.408615 0.000000 0.000000
										CHANNELS 3 Xrotation Yrotation Zrotation
										JOINT RightHandRing3
										{
											OFFSET -6.150223 0.000000 0.000000
											CHANNELS 3 Xrotation Yrotation Zrotation
											JOINT RightHandRing4
											{
												OFFSET -6.145386 0.000000 0.000000
												CHANNELS 3 Xrotation Yrotation Zrotation
												End Site
												{
													OFFSET 3.671402 4.923981 -0.202372
												}
											}
										}
									}
								}
								JOINT RightHandPinky1
								{
									OFFSET -18.920792 -0.453171 -11.426712
									CHANNELS 3 Xrotation Yrotation Zrotation
									JOINT RightHandPinky2
									{
										OFFSET -4.919586 0.000000 0.000000
										CHANNELS 3 Xrotation Yrotation Zrotation
										JOINT RightHandPinky3
										{
											OFFSET -5.233047 0.000000 0.000000
											CHANNELS 3 Xrotation Yrotation Zrotation
											JOINT RightHandPinky4
											{
												OFFSET -5.571716 0.000000 0.000000
												CHANNELS 3 Xrotation Yrotation Zrotation
												End Site
												{
													OFFSET 3.459808 4.342407 -0.466164
												}
											}
										}
									}
								}
							}
						}
					}
				}
			}
		}
	}
	JOINT LeftUpLeg
	{
		OFFSET 19.899099 -7.885101 -3.429500
		CHANNELS 3 Xrotation Yrotation Zrotation
		JOINT LeftLeg
		{
			OFFSET 1.745560 -36.997807 10.304700
			CHANNELS 3 Xrotation Yrotation Zrotation
			JOINT LeftFoot
			{
				OFFSET -1.745558 -29.803308 -13.615400
				CHANNELS 3 Xrotation Yrotation Zrotation
				JOINT LeftToeBase
				{
					OFFSET 1.181900 -18.539904 15.226099
					CHANNELS 3 Xrotation Yrotation Zrotation
					JOINT LeftToe_End
					{
						OFFSET -0.863701 1.402801 16.534700
						CHANNELS 3 Xrotation Yrotation Zrotation
						End Site
						{
							OFFSET 0.000000 16.616566 0.000000
						}
					}
				}
			}
		}
	}
	JOINT RightUpLeg
	{
		OFFSET -19.899099 -7.885101 -3.429500
		CHANNELS 3 Xrotation Yrotation Zrotation
		JOINT RightLeg
		{
			OFFSET -1.745560 -36.997807 10.304700
			CHANNELS 3 Xrotation Yrotation Zrotation
			JOINT RightFoot
			{
				OFFSET 1.745558 -29.803308 -13.615400
				CHANNELS 3 Xrotation Yrotation Zrotation
				JOINT RightToeBase
				{
					OFFSET -1.181900 -18.539904 15.226099
					CHANNELS 3 Xrotation Yrotation Zrotation
					JOINT RightToe_End
					{
						OFFSET 0.863701 1.402801 16.534700
						CHANNELS 3 Xrotation Yrotation Zrotation
						End Site
						{
							OFFSET 0.000000 16.616566 0.000000
						}
					}
				}
			}
		}
	}
}
MOTION
Frames: 4
Frame Time: 0.033333
-1.383286 33.937050 1.696262 -20.768626 -40.555717 -10.027582 15.744696 3.792580 -6.005865 17.844366 6.415559 0.374604 22.086844 7.207740 -1.714078 -0.121777 2.765884 4.126669 -16.818870 17.695593 4.073700 -0.000001 0.000000 0.000001 -2.554548 -8.151349 -0.053367 -69.339951 -20.866566 -75.740883 -94.323437 18.404281 -78.085769 -24.994225 -0.769423 17.504479 0.699123 9.503377 -2.418146 5.975216 12.647554 1.348363 -23.873536 -17.664261 1.604945 0.000004 0.000003 0.000002 -7.938280 1.609085 -6.495693 2.210577 4.583646 -51.475171 0.883825 3.096064 -31.858082 0.000003 -0.000001 -0.000002 1.254232 -0.073745 -17.945760 3.754094 5.463599 -68.965308 5.298502 9.638332 -33.746944 0.000003 -0.000000 0.000005 10.058166 -1.800592 -20.644696 1.774245 4.200515 -45.782037 1.632167 4.057749 -43.809404 0.000002 0.000000 0.000007 9.479715 -1.289793 -20.785538 0.709452 2.796419 -28.467028 0.714003 2.804749 -28.559734 0.000001 0.000001 0.000003 -7.953230 -5.878025 -1.893756 -7.859182 49.550229 43.936708 39.130587 136.405763 -44.872888 2.052717 2.409092 -20.744000 13.942489 -4.273657 -5.300484 7.113258 -20.767593 -2.619555 -3.463366 -24.899712 -18.660517 -0.000002 0.000001 -0.000000 0.357774 -5.832659 5.175934 0.094372 -0.933731 11.539829 0.777641 -2.578451 33.559889 -0.000000 -0.000001 -0.000001 3.764077 -12.080514 1.143769 5.714248 -4.535801 103.133377 3.160467 -4.410616 71.234925 0.000001 0.000000 -0.000009 -12.155649 -12.623933 9.228351 6.566866 -4.248358 114.232271 3.755120 -4.569163 78.819761 0.000000 0.000001 -0.000005 -17.635736 -10.496888 3.325443 4.993673 -4.645011 94.147942 3.647303 -4.546614 77.463354 0.000003 -0.000001 0.000000 -61.389153 -32.870080 74.056442 105.871088 -18.716132 -21.573221 6.758748 -9.395122 -4.802771 -0.215429 0.098817 0.217589 -0.000000 -0.000000 -0.000000 49.884239 22.082014 -72.568144 103.533073 31.163968 17.102481 -62.693576 6.796583 -7.265832 -47.855177 -21.772271 30.062965 0.000000 -0.000003 0.000000 
-1.379496 33.934883 1.691101 -20.804334 -40.547483 -10.050633 15.826192 3.786872 -6.007122 17.808376 6.417885 0.404039 22.126459 7.210696 -1.755934 -0.028540 2.803109 4.125007 -16.885667 17.654840 3.972438 0.000000 -0.000001 -0.000001 -2.449085 -8.192638 -0.054965 -69.476240 -20.862425 -75.749298 -94.334161 18.289064 -78.079082 -25.053761 -0.709131 17.525150 0.699127 9.503378 -2.418148 5.975214 12.647552 1.348364 -23.873541 -17.664261 1.604944 0.000002 0.000001 0.000000 -7.938275 1.609080 -6.495695 2.210581 4.583645 -51.475167 0.883824 3.096062 -31.858082 -0.000001 0.000001 0.000002 1.254234 -0.073752 -17.945765 3.754097 5.463600 -68.965301 5.298504 9.638332 -33.746950 -0.000001 -0.000002 -0.000000 10.058169 -1.800591 -20.644701 1.774245 4.200516 -45.782037 1.632164 4.057751 -43.809404 0.000001 0.000000 0.000008 9.479718 -1.289794 -20.785541 0.709451 2.796417 -28.467023 0.714010 2.804750 -28.559731 0.000001 -0.000000 -0.000001 -7.988507 -5.947902 -1.908539 -7.777395 49.644947 43.822845 39.183740 136.408331 -44.942307 2.078408 2.511960 -20.812850 13.942486 -4.273661 -5.300484 7.113259 -20.767595 -2.619554 -3.463362 -24.899721 -18.660529 -0.000001 0.000004 0.000000 0.357778 -5.832662 5.175934 0.094372 -0.933733 11.539828 0.777640 -2.578448 33.559889 -0.000001 -0.000001 -0.000002 3.764077 -12.080515 1.143770 5.714246 -4.535801 103.133377 3.160469 -4.410616 71.234918 -0.000000 0.000001 0.000003 -12.155646 -12.623936 9.228346 6.566870 -4.248355 114.232271 3.755116 -4.569161 78.819768 -0.000001 0.000000 -0.000002 -17.635736 -10.496889 3.325441 4.993670 -4.645014 94.147942 3.647304 -4.546617 77.463354 -0.000000 -0.000000 0.000006 -61.405088 -32.865385 74.044319 105.871429 -18.710789 -21.565848 6.781303 -9.394804 -4.774473 -0.215429 0.098817 0.217589 -0.000000 -0.000000 -0.000000 49.886568 22.069422 -72.557168 103.546173 31.160628 17.082073 -62.694115 6.804310 -7.271193 -47.855177 -21.772276 30.062962 -0.000000 -0.000000 -0.000000 
-1.376650 33.933014 1.687468 -20.830733 -40.541401 -10.067670 15.862298 3.781250 -5.980770 17.817368 6.415940 0.402454 22.209771 7.200753 -1.815279 0.068232 2.839911 4.120718 -17.026391 17.631247 3.903752 -0.000000 -0.000001 -0.000000 -2.344450 -8.227368 -0.056162 -69.657227 -20.853778 -75.761619 -94.332999 18.150046 -78.092517 -25.117578 -0.646773 17.569936 0.699124 9.503378 -2.418147 5.975216 12.647554 1.348362 -23.873538 -17.664261 1.604943 0.000001 0.000001 -0.000001 -7.938274 1.609087 -6.495694 2.210582 4.583643 -51.475167 0.883834 3.096048 -31.858085 -0.000002 -0.000002 -0.000001 1.254235 -0.073746 -17.945765 3.754097 5.463599 -68.965301 5.298506 9.638337 -33.746947 -0.000000 -0.000001 0.000007 10.058169 -1.800587 -20.644699 1.774246 4.200516 -45.782034 1.632168 4.057750 -43.809407 -0.000000 0.000001 0.000006 9.479715 -1.289791 -20.785541 0.709452 2.796412 -28.467026 0.714003 2.804753 -28.559733 0.000000 0.000001 0.000001 -8.017566 -6.007508 -1.921112 -7.755306 49.728439 43.736082 39.217457 136.395859 -44.986737 2.089307 2.626964 -20.883431 13.942491 -4.273660 -5.300485 7.113260 -20.767591 -2.619554 -3.463366 -24.899726 -18.660524 0.000000 0.000000 0.000002 0.357777 -5.832660 5.175934 0.094371 -0.933737 11.539827 0.777640 -2.578451 33.559889 -0.000000 -0.000001 0.000001 3.764078 -12.080517 1.143769 5.714247 -4.535803 103.133370 3.160468 -4.410618 71.234925 0.000000 -0.000000 -0.000004 -12.155646 -12.623935 9.228349 6.566867 -4.248352 114.232271 3.755120 -4.569161 78.819761 0.000000 -0.000000 -0.000005 -17.635736 -10.496892 3.325448 4.993676 -4.645014 94.147942 3.647303 -4.546611 77.463354 0.000000 -0.000000 0.000006 -61.424991 -32.859384 74.032598 105.872809 -18.706503 -21.557487 6.799426 -9.393688 -4.748894 -0.215429 0.098817 0.217589 -0.000000 -0.000000 -0.000000 49.888836 22.059855 -72.550167 103.555305 31.159166 17.067803 -62.694716 6.810160 -7.275214 -47.855184 -21.772271 30.062962 -0.000000 0.000000 -0.000000 
-1.374424 33.931633 1.685419 -20.847190 -40.537528 -10.078361 15.927923 3.776056 -5.988109 17.769587 6.420782 0.439573 22.228876 7.211618 -1.841994 0.165047 2.875186 4.113564 -17.091092 17.591043 3.814154 0.000001 -0.000001 -0.000000 -2.242469 -8.260866 -0.057205 -69.739530 -20.851693 -75.773279 -94.338675 18.038285 -78.100071 -25.187999 -0.596367 17.570033 0.699128 9.503377 -2.418149 5.975216 12.647554 1.348364 -23.873543 -17.664264 1.604945 0.000003 0.000002 -0.000001 -7.938274 1.609089 -6.495691 2.210581 4.583649 -51.475171 0.883834 3.096060 -31.858079 0.000000 -0.000001 -0.000002 1.254234 -0.073746 -17.945762 3.754102 5.463594 -68.965308 5.298506 9.638329 -33.746944 0.000003 0.000003 0.000004 10.058172 -1.800590 -20.644698 1.774246 4.200517 -45.782037 1.632168 4.057750 -43.809404 0.000005 0.000002 0.000004 9.479719 -1.289789 -20.785538 0.709451 2.796409 -28.467026 0.714007 2.804754 -28.559738 -0.000001 0.000001 -0.000003 -8.039677 -6.054879 -1.931012 -7.640571 49.787277 43.620843 39.239225 136.395053 -45.015274 2.109794 2.707526 -20.943698 13.942489 -4.273663 -5.300486 7.113261 -20.767593 -2.619554 -3.463361 -24.899721 -18.660517 0.000001 -0.000001 -0.000000 0.357776 -5.832661 5.175930 0.094371 -0.933736 11.539827 0.777641 -2.578451 33.559889 -0.000000 -0.000002 0.000003 3.764078 -12.080516 1.143769 5.714248 -4.535802 103.133377 3.160468 -4.410615 71.234925 0.000000 0.000001 -0.000004 -12.155646 -12.623936 9.228348 6.566865 -4.248353 114.232271 3.755122 -4.569162 78.819755 -0.000000 -0.000000 0.000000 -17.635735 -10.496893 3.325444 4.993676 -4.645018 94.147942 3.647304 -4.546616 77.463354 0.000002 0.000000 0.000000 -61.449627 -32.852004 74.019211 105.876217 -18.701867 -21.546416 6.811708 -9.391823 -4.727667 -0.215429 0.098817 0.217589 0.000000 -0.000000 -0.000000 49.890615 22.054174 -72.546895 103.559677 31.158930 17.059637 -62.693801 6.813658 -7.277649 -47.855181 -21.772270 30.062962 0.000000 -0.000002 -0.000000 
